<svg width="137" height="137" viewBox="0 0 137 137" fill="none" xmlns="http://www.w3.org/2000/svg">
<path d="M62.6285 115.643L59.2152 130.147L53.1217 128.713C52.304 128.521 51.6333 128.198 51.1096 127.746C50.5698 127.304 50.2019 126.773 50.0057 126.151C49.7965 125.527 49.7775 124.851 49.9485 124.124C50.1257 123.371 50.4712 122.747 50.985 122.252C51.4828 121.766 52.1108 121.455 52.8689 121.319L52.7784 121.79C52.2562 121.448 51.8382 121.042 51.5245 120.571C51.1977 120.097 50.9836 119.58 50.8821 119.022C50.7775 118.477 50.7924 117.919 50.9268 117.348C51.2322 116.05 51.8904 115.116 52.9012 114.546C53.896 113.986 55.1008 113.872 56.5155 114.205L62.6285 115.643ZM60.7274 116.737L56.1719 115.665C55.2504 115.448 54.4606 115.516 53.8024 115.867C53.1283 116.229 52.6904 116.839 52.4888 117.695C52.2903 118.539 52.412 119.273 52.8541 119.897C53.28 120.532 53.9538 120.957 54.8753 121.174L59.4308 122.246L60.7274 116.737ZM59.1009 123.648L54.6817 122.608C53.903 122.425 53.2265 122.505 52.6524 122.85C52.0653 123.191 51.6877 123.718 51.5197 124.432C51.3487 125.159 51.459 125.767 51.8506 126.257C52.2262 126.756 52.8034 127.097 53.5821 127.28L58.0014 128.32L59.1009 123.648Z" fill="black"/>
<path d="M45.7622 110.223L37.4114 122.563L29.4608 117.182L30.3015 115.94L36.927 120.424L39.8302 116.134L33.536 111.874L34.3767 110.632L40.6709 114.892L43.5965 110.569L36.971 106.085L37.8117 104.843L45.7622 110.223Z" fill="black"/>
<path d="M29.9208 95.5688C30.4723 96.3382 30.827 97.1421 30.9849 97.9803C31.1428 98.8186 31.1333 99.6293 30.9563 100.412C30.7685 101.203 30.4426 101.904 29.9786 102.516L28.7008 101.66C29.3225 100.788 29.6365 99.8983 29.6427 98.9915C29.6382 98.0926 29.3407 97.2313 28.7504 96.4077C28.3775 95.8875 27.97 95.4906 27.5278 95.2169C27.067 94.9403 26.6073 94.8023 26.1485 94.803C25.6897 94.8038 25.2598 94.9479 24.8588 95.2353C24.2628 95.6625 23.9187 96.1551 23.8266 96.7133C23.7345 97.2714 23.8193 97.9161 24.0809 98.6472L24.9919 101.292C25.3563 102.326 25.4129 103.286 25.1617 104.172C24.9027 105.046 24.3994 105.752 23.6516 106.288C23.0122 106.746 22.3361 106.993 21.6231 107.028C20.8994 107.071 20.2024 106.923 19.5323 106.583C18.8544 106.232 18.2668 105.71 17.7697 105.016C17.2493 104.29 16.9187 103.543 16.7779 102.774C16.6186 102.003 16.612 101.261 16.758 100.549C16.9041 99.8377 17.1805 99.2049 17.5873 98.6509L18.858 99.4625C18.3292 100.235 18.0786 101.03 18.1063 101.847C18.1262 102.653 18.4003 103.424 18.9285 104.161C19.2625 104.627 19.6389 104.981 20.0578 105.222C20.4689 105.452 20.8961 105.556 21.3394 105.534C21.7826 105.511 22.2102 105.352 22.622 105.057C23.1205 104.7 23.4576 104.22 23.6333 103.619C23.7982 103.025 23.7451 102.333 23.4741 101.543L22.6682 99.2168C22.2665 98.0612 22.1563 97.0493 22.3378 96.181C22.5193 95.3127 23.011 94.5912 23.8129 94.0164C24.4631 93.5503 25.1579 93.3066 25.8972 93.2852C26.6179 93.2608 27.3327 93.4456 28.0417 93.8397C28.7429 94.223 29.3693 94.7993 29.9208 95.5688Z" fill="black"/>
<path d="M23.2973 82.8934L10.4476 86.694L11.6161 90.6448L10.1777 91.0702L7.39821 81.6726L8.83661 81.2472L9.9938 85.1597L22.8435 81.3591L23.2973 82.8934Z" fill="black"/>
<path d="M22.0041 58.6763L6.24494 60.5396L6.62913 58.9247L20.8541 57.3748L20.78 57.6861L8.77227 49.9161L9.16109 48.2817L22.3929 57.0419L22.0041 58.6763Z" fill="black"/>
<path d="M26.8599 45.5441L13.993 38.0305L14.7999 36.6488L27.6667 44.1625L26.8599 45.5441Z" fill="black"/>
<path d="M36.2214 33.9174C35.5333 34.5676 34.7846 35.0275 33.9753 35.297C33.1659 35.5664 32.3614 35.6663 31.5617 35.5965C30.7528 35.517 30.0141 35.2886 29.3457 34.9113L30.0214 33.5298C30.9694 34.0282 31.893 34.2194 32.7923 34.1034C33.6825 33.9776 34.4958 33.5668 35.2323 32.8708C35.6975 32.4312 36.0358 31.9739 36.2473 31.4989C36.4594 31.005 36.5341 30.5308 36.4715 30.0763C36.4089 29.6218 36.2082 29.2153 35.8694 28.8567C35.3657 28.3237 34.8311 28.0492 34.2657 28.0332C33.7002 28.0172 33.0729 28.1881 32.3837 28.5459L29.8863 29.8051C28.9101 30.3057 27.9664 30.4912 27.0552 30.3617C26.1536 30.223 25.3869 29.8193 24.755 29.1506C24.2147 28.5788 23.879 27.9421 23.748 27.2405C23.6078 26.5291 23.6609 25.8185 23.9073 25.1087C24.1635 24.3896 24.6017 23.7371 25.2219 23.151C25.8712 22.5374 26.5671 22.1091 27.3097 21.866C28.0528 21.6041 28.7867 21.4975 29.5116 21.5463C30.2365 21.5951 30.9008 21.7837 31.5046 22.112L30.8717 23.4806C30.0347 23.0608 29.2134 22.9197 28.4078 23.0572C27.6119 23.1856 26.8844 23.5612 26.2254 24.1839C25.8087 24.5777 25.5092 24.9983 25.3267 25.4459C25.154 25.8843 25.1086 26.3216 25.1906 26.7578C25.2726 27.194 25.4875 27.5962 25.8355 27.9645C26.2568 28.4103 26.7773 28.6796 27.3972 28.7726C28.0079 28.8559 28.6864 28.7101 29.4327 28.3351L31.6288 27.2229C32.7197 26.669 33.7076 26.4234 34.5924 26.4862C35.4772 26.549 36.2585 26.9389 36.9361 27.656C37.4856 28.2375 37.8207 28.8931 37.9416 29.6227C38.0629 30.3336 37.9762 31.0668 37.6813 31.8224C37.3961 32.5689 36.9094 33.2672 36.2214 33.9174Z" fill="black"/>
<path d="M50.2851 24.8487C49.3082 25.2428 48.3666 25.3855 47.4601 25.2768C46.5535 25.1681 45.7541 24.8436 45.0617 24.3034C44.3643 23.7509 43.831 23.0171 43.4619 22.1021L39.7055 12.7913L41.1893 12.1927L44.9457 21.5035C45.2151 22.1712 45.5942 22.7012 46.0831 23.0934C46.5794 23.4682 47.1384 23.6956 47.7601 23.7755C48.3892 23.838 49.0438 23.7321 49.7239 23.4577C50.4039 23.1833 50.9426 22.8078 51.3398 22.3313C51.7444 21.8374 51.9891 21.2857 52.074 20.6764C52.1662 20.0497 52.0776 19.4025 51.8082 18.7348L48.0518 9.42401L49.5356 8.82538L53.292 18.1362C53.6612 19.0512 53.7864 19.9496 53.6677 20.8314C53.544 21.7008 53.1935 22.4892 52.6162 23.1966C52.0513 23.8989 51.2743 24.4497 50.2851 24.8487Z" fill="black"/>
<path d="M61.595 21L67.035 6.1L68.755 6.1L74.195 21H72.515L71.235 17.36L64.575 17.36L63.275 21H61.595ZM65.095 15.86L70.675 15.86L67.655 7.3L68.135 7.3L65.095 15.86Z" fill="black"/>
<path d="M80.83 22.5146L85.8572 8.48823L87.3633 9.02805L82.8423 21.6423L89.0553 23.8691L88.5492 25.2812L80.83 22.5146Z" fill="black"/>
<path d="M104.121 37.6629C103.5 36.9483 103.072 36.181 102.836 35.3612C102.601 34.5413 102.535 33.7333 102.638 32.9372C102.751 32.1323 103.01 31.4038 103.415 30.7517L104.767 31.4845C104.229 32.4109 104 33.3257 104.078 34.2291C104.167 35.1237 104.543 35.9535 105.208 36.7184C105.628 37.2015 106.07 37.5586 106.536 37.7898C107.021 38.0223 107.491 38.1167 107.948 38.0732C108.405 38.0296 108.819 37.846 109.192 37.5224C109.745 37.0415 110.042 36.5188 110.082 35.9545C110.121 35.3902 109.977 34.7563 109.648 34.0527L108.494 31.505C108.035 30.5088 107.889 29.5581 108.056 28.6531C108.232 27.7581 108.668 27.0089 109.362 26.4055C109.956 25.8896 110.606 25.5808 111.313 25.4791C112.029 25.3687 112.737 25.4514 113.436 25.7273C114.144 26.0132 114.777 26.4783 115.337 27.1224C115.923 27.7968 116.322 28.51 116.534 29.262C116.764 30.0154 116.84 30.7532 116.761 31.4754C116.682 32.1976 116.466 32.8535 116.113 33.443L114.772 32.7535C115.226 31.9348 115.402 31.1201 115.298 30.3095C115.203 29.5089 114.858 28.7664 114.263 28.082C113.887 27.6492 113.479 27.3323 113.04 27.1314C112.609 26.9405 112.174 26.8769 111.735 26.9406C111.295 27.0043 110.885 27.2023 110.502 27.5346C110.039 27.9369 109.748 28.4457 109.63 29.0612C109.521 29.6679 109.638 30.3519 109.982 31.1132L111.001 33.3538C111.509 34.4669 111.713 35.4641 111.614 36.3455C111.514 37.227 111.092 37.9913 110.347 38.6384C109.743 39.1631 109.074 39.4706 108.34 39.5609C107.625 39.6525 106.896 39.5352 106.153 39.209C105.419 38.8928 104.742 38.3775 104.121 37.6629Z" fill="black"/>
<path d="M110.992 47.1754L124.929 41.9073L128.324 50.8872L126.92 51.4175L124.092 43.9343L119.247 45.7658L121.934 52.8749L120.531 53.4052L117.843 46.2961L112.961 48.1417L115.789 55.625L114.386 56.1553L110.992 47.1754Z" fill="black"/>
<path d="M115.69 63.2605L130.589 63.1501L130.627 68.27C130.634 69.2433 130.447 70.098 130.066 70.8342C129.698 71.5703 129.169 72.1409 128.479 72.546C127.802 72.9644 127.01 73.1769 126.103 73.1836C125.05 73.1914 124.148 72.9181 123.397 72.3636C122.647 71.8225 122.114 71.0798 121.801 70.1354L115.767 73.6602L115.753 71.7802L122.146 68.0928L121.534 69.1773L121.501 64.8175L115.701 64.8604L115.69 63.2605ZM123.001 64.8064L123.028 68.4063C123.033 69.0462 123.157 69.6053 123.4 70.0835C123.657 70.5617 124.013 70.9324 124.469 71.1957C124.937 71.4589 125.485 71.5881 126.112 71.5835C126.738 71.5789 127.277 71.4415 127.729 71.1715C128.18 70.9015 128.524 70.5256 128.76 70.0438C129.01 69.562 129.133 69.0011 129.128 68.3611L129.101 64.7612L123.001 64.8064Z" fill="black"/>
<path d="M113.211 83.635L129.08 83.7167L128.501 85.2724L114.193 85.0676L114.305 84.7677L125.27 93.9505L124.684 95.5249L112.625 85.2094L113.211 83.635Z" fill="black"/>
<path d="M106.783 96.0731L118.632 105.107L117.662 106.379L105.813 97.3455L106.783 96.0731Z" fill="black"/>
<path d="M94.7005 107.425C95.567 106.826 96.4683 106.43 97.4045 106.236C98.3483 106.054 99.2822 106.057 100.206 106.245C101.127 106.451 102.001 106.836 102.828 107.399C103.654 107.962 104.386 108.705 105.023 109.626C105.66 110.547 106.095 111.494 106.33 112.467C106.564 113.439 106.616 114.392 106.483 115.327C106.34 116.268 106.013 117.143 105.501 117.951C104.997 118.769 104.312 119.478 103.445 120.077C102.612 120.653 101.763 121.02 100.901 121.179C100.027 121.345 99.2021 121.348 98.4264 121.187C97.6473 121.045 96.9809 120.784 96.4272 120.405L97.2859 119.009C98.0857 119.51 98.9516 119.754 99.8834 119.742C100.812 119.749 101.715 119.449 102.592 118.843C103.492 118.221 104.145 117.454 104.551 116.541C104.957 115.628 105.092 114.651 104.957 113.61C104.828 112.581 104.412 111.556 103.707 110.536C103.009 109.526 102.198 108.774 101.272 108.28C100.347 107.785 99.3852 107.566 98.3875 107.623C97.3975 107.692 96.4527 108.037 95.5533 108.658C94.6759 109.265 94.0723 109.998 93.7428 110.858C93.4023 111.725 93.3249 112.622 93.5105 113.547L91.9013 113.857C91.75 113.216 91.7417 112.5 91.8764 111.71C92.0077 110.939 92.3056 110.174 92.7699 109.415C93.2234 108.664 93.8669 108.001 94.7005 107.425Z" fill="black"/>
<path d="M83.3928 113.507L86.6633 128.044L77.2975 130.151L76.9682 128.687L84.7731 126.931L83.6361 121.878L76.2215 123.546L75.8922 122.082L83.3069 120.414L82.1611 115.322L74.3562 117.078L74.0269 115.614L83.3928 113.507Z" fill="black"/>
</svg>
