<svg width="62" height="62" viewBox="0 0 62 62" fill="none" xmlns="http://www.w3.org/2000/svg">
<mask id="path-1-outside-1_3_462" maskUnits="userSpaceOnUse" x="-0.00708654" y="-0.137026" width="62.3734" height="62.3734" fill="black">
<rect fill="white" x="-0.00708654" y="-0.137026" width="62.3734" height="62.3734"/>
<path fill-rule="evenodd" clip-rule="evenodd" d="M26.0675 45.318L26.6711 60.2555L38.2616 59.7872L37.6542 44.7537L48.6432 54.8892L56.5078 46.3623L45.4483 36.1618L60.3855 35.5583L59.9171 23.9677L45.2115 24.5619L55.1898 13.7432L46.6629 5.87863L36.5274 16.8677L35.92 1.83449L24.3295 2.30281L24.933 17.24L13.8733 7.03932L6.00871 15.5662L16.9979 25.7019L1.96443 26.3093L2.43275 37.8999L17.6978 37.2831L7.33995 48.5131L15.8669 56.3777L26.0675 45.318Z"/>
</mask>
<path fill-rule="evenodd" clip-rule="evenodd" d="M26.0675 45.318L26.6711 60.2555L38.2616 59.7872L37.6542 44.7537L48.6432 54.8892L56.5078 46.3623L45.4483 36.1618L60.3855 35.5583L59.9171 23.9677L45.2115 24.5619L55.1898 13.7432L46.6629 5.87863L36.5274 16.8677L35.92 1.83449L24.3295 2.30281L24.933 17.24L13.8733 7.03932L6.00871 15.5662L16.9979 25.7019L1.96443 26.3093L2.43275 37.8999L17.6978 37.2831L7.33995 48.5131L15.8669 56.3777L26.0675 45.318Z" fill="#ABFF00"/>
<path d="M26.6711 60.2555L25.6719 60.2959L25.7123 61.2951L26.7114 61.2547L26.6711 60.2555ZM26.0675 45.318L27.0667 45.2777L26.9692 42.8654L25.3324 44.6401L26.0675 45.318ZM38.2616 59.7872L38.302 60.7864L39.3012 60.746L39.2608 59.7468L38.2616 59.7872ZM37.6542 44.7537L38.3322 44.0186L36.5575 42.3818L36.655 44.7941L37.6542 44.7537ZM48.6432 54.8892L47.9653 55.6243L48.7003 56.3023L49.3783 55.5672L48.6432 54.8892ZM56.5078 46.3623L57.2429 47.0403L57.9209 46.3052L57.1858 45.6272L56.5078 46.3623ZM45.4483 36.1618L45.4079 35.1626L42.9957 35.2601L44.7703 36.8969L45.4483 36.1618ZM60.3855 35.5583L60.4258 36.5574L61.425 36.5171L61.3847 35.5179L60.3855 35.5583ZM59.9171 23.9677L60.9163 23.9273L60.876 22.9282L59.8768 22.9685L59.9171 23.9677ZM45.2115 24.5619L44.4764 23.8839L42.8396 25.6586L45.2519 25.5611L45.2115 24.5619ZM55.1898 13.7432L55.9249 14.4212L56.6029 13.6861L55.8678 13.0081L55.1898 13.7432ZM46.6629 5.87863L47.3409 5.14355L46.6058 4.46557L45.9279 5.20065L46.6629 5.87863ZM36.5274 16.8677L35.5282 16.9081L35.6257 19.3203L37.2625 17.5457L36.5274 16.8677ZM35.92 1.83449L36.9192 1.79412L36.8788 0.794935L35.8796 0.835307L35.92 1.83449ZM24.3295 2.30281L24.2891 1.30363L23.2899 1.344L23.3303 2.34319L24.3295 2.30281ZM24.933 17.24L24.255 17.9751L26.0297 19.6119L25.9322 17.1996L24.933 17.24ZM13.8733 7.03932L14.5513 6.30425L13.8162 5.62626L13.1382 6.36134L13.8733 7.03932ZM6.00871 15.5662L5.27363 14.8882L4.59565 15.6233L5.33073 16.3013L6.00871 15.5662ZM16.9979 25.7019L17.0383 26.7011L19.4505 26.6036L17.6759 24.9668L16.9979 25.7019ZM1.96443 26.3093L1.92406 25.3101L0.924874 25.3505L0.965246 26.3497L1.96443 26.3093ZM2.43275 37.8999L1.43357 37.9402L1.47394 38.9394L2.47313 38.899L2.43275 37.8999ZM17.6978 37.2831L18.4328 37.9611L20.0696 36.1864L17.6574 36.2839L17.6978 37.2831ZM7.33995 48.5131L6.60487 47.8352L5.92689 48.5702L6.66197 49.2482L7.33995 48.5131ZM15.8669 56.3777L15.1889 57.1128L15.9239 57.7908L16.6019 57.0557L15.8669 56.3777ZM27.6703 60.2152L27.0667 45.2777L25.0683 45.3584L25.6719 60.2959L27.6703 60.2152ZM38.2212 58.788L26.6307 59.2563L26.7114 61.2547L38.302 60.7864L38.2212 58.788ZM36.655 44.7941L37.2624 59.8276L39.2608 59.7468L38.6534 44.7133L36.655 44.7941ZM49.3212 54.1541L38.3322 44.0186L36.9762 45.4888L47.9653 55.6243L49.3212 54.1541ZM55.7728 45.6843L47.9082 54.2112L49.3783 55.5672L57.2429 47.0403L55.7728 45.6843ZM44.7703 36.8969L55.8298 47.0974L57.1858 45.6272L46.1263 35.4267L44.7703 36.8969ZM60.3451 34.5591L45.4079 35.1626L45.4887 37.161L60.4258 36.5574L60.3451 34.5591ZM58.918 24.0081L59.3863 35.5986L61.3847 35.5179L60.9163 23.9273L58.918 24.0081ZM45.2519 25.5611L59.9575 24.9669L59.8768 22.9685L45.1711 23.5627L45.2519 25.5611ZM54.4548 13.0652L44.4764 23.8839L45.9466 25.2399L55.9249 14.4212L54.4548 13.0652ZM45.985 6.61371L54.5119 14.4783L55.8678 13.0081L47.3409 5.14355L45.985 6.61371ZM37.2625 17.5457L47.398 6.55661L45.9279 5.20065L35.7923 16.1897L37.2625 17.5457ZM34.9208 1.87486L35.5282 16.9081L37.5266 16.8273L36.9192 1.79412L34.9208 1.87486ZM24.3698 3.302L35.9604 2.83368L35.8796 0.835307L24.2891 1.30363L24.3698 3.302ZM25.9322 17.1996L25.3286 2.26244L23.3303 2.34319L23.9338 17.2804L25.9322 17.1996ZM13.1953 7.7744L24.255 17.9751L25.611 16.5049L14.5513 6.30425L13.1953 7.7744ZM6.74379 16.2442L14.6084 7.71731L13.1382 6.36134L5.27363 14.8882L6.74379 16.2442ZM17.6759 24.9668L6.68669 14.8312L5.33073 16.3013L16.3199 26.437L17.6759 24.9668ZM2.0048 27.3085L17.0383 26.7011L16.9576 24.7027L1.92406 25.3101L2.0048 27.3085ZM3.43194 37.8595L2.96362 26.2689L0.965246 26.3497L1.43357 37.9402L3.43194 37.8595ZM17.6574 36.2839L2.39238 36.9007L2.47313 38.899L17.7381 38.2823L17.6574 36.2839ZM8.07503 49.1911L18.4328 37.9611L16.9627 36.6051L6.60487 47.8352L8.07503 49.1911ZM16.5448 55.6427L8.01793 47.7781L6.66197 49.2482L15.1889 57.1128L16.5448 55.6427ZM25.3324 44.6401L15.1318 55.6998L16.6019 57.0557L26.8026 45.996L25.3324 44.6401Z" fill="black" mask="url(#path-1-outside-1_3_462)"/>
</svg>
