<svg width="159" height="32" viewBox="0 0 159 32" fill="none" xmlns="http://www.w3.org/2000/svg">
<path d="M6.168 25.384C4.90933 25.384 3.82133 25.1813 2.904 24.776C1.98667 24.3707 1.28267 23.7947 0.792 23.048C0.301333 22.28 0.056 21.3733 0.056 20.328C0.056 19.3467 0.28 18.4827 0.728 17.736C1.176 16.968 1.85867 16.328 2.776 15.816C3.71467 15.304 4.87733 14.9413 6.264 14.728L11.608 13.864V17.384L7.128 18.184C6.44533 18.312 5.92267 18.536 5.56 18.856C5.19733 19.1547 5.016 19.592 5.016 20.168C5.016 20.7013 5.21867 21.1173 5.624 21.416C6.02933 21.7147 6.53067 21.864 7.128 21.864C7.91733 21.864 8.61067 21.6933 9.208 21.352C9.80533 21.0107 10.264 20.552 10.584 19.976C10.9253 19.3787 11.096 18.728 11.096 18.024V13.48C11.096 12.8187 10.8293 12.264 10.296 11.816C9.784 11.368 9.08 11.144 8.184 11.144C7.33067 11.144 6.57333 11.3787 5.912 11.848C5.272 12.3173 4.80267 12.936 4.504 13.704L0.664 11.88C1.00533 10.8987 1.54933 10.056 2.296 9.352C3.04267 8.648 3.93867 8.104 4.984 7.72C6.02933 7.336 7.17067 7.144 8.408 7.144C9.88 7.144 11.1813 7.41067 12.312 7.944C13.4427 8.47733 14.3173 9.224 14.936 10.184C15.576 11.1227 15.896 12.2213 15.896 13.48V25H11.416V22.184L12.504 21.992C11.992 22.76 11.4267 23.4 10.808 23.912C10.1893 24.4027 9.496 24.7653 8.728 25C7.96 25.256 7.10667 25.384 6.168 25.384ZM19.4163 25V7.528H23.8963V11.72L23.5763 11.112C23.9603 9.64 24.5896 8.648 25.4643 8.136C26.3603 7.60267 27.4163 7.336 28.6323 7.336H29.6563V11.496H28.1523C26.9789 11.496 26.0296 11.8587 25.3043 12.584C24.5789 13.288 24.2163 14.2907 24.2163 15.592V25H19.4163ZM31.76 25V7.528H36.56V25H31.76ZM31.76 5.96V1.16H36.56V5.96H31.76ZM40.0725 31.4V7.528H44.5525V10.856L44.1365 9.896C44.7125 9.02133 45.4912 8.34933 46.4725 7.88C47.4752 7.38933 48.6165 7.144 49.8965 7.144C51.5605 7.144 53.0645 7.54933 54.4085 8.36C55.7525 9.17067 56.8192 10.2693 57.6085 11.656C58.3978 13.0213 58.7925 14.5573 58.7925 16.264C58.7925 17.9493 58.3978 19.4853 57.6085 20.872C56.8405 22.2587 55.7845 23.3573 54.4405 24.168C53.0965 24.9787 51.5712 25.384 49.8645 25.384C48.6698 25.384 47.5605 25.1707 46.5365 24.744C45.5338 24.296 44.7232 23.6453 44.1045 22.792L44.8725 21.8V31.4H40.0725ZM49.2885 21.064C50.1845 21.064 50.9738 20.8613 51.6565 20.456C52.3392 20.0507 52.8725 19.4853 53.2565 18.76C53.6405 18.0347 53.8325 17.2027 53.8325 16.264C53.8325 15.3253 53.6405 14.504 53.2565 13.8C52.8725 13.0747 52.3392 12.5093 51.6565 12.104C50.9738 11.6773 50.1845 11.464 49.2885 11.464C48.4352 11.464 47.6672 11.6667 46.9845 12.072C46.3232 12.4773 45.8005 13.0427 45.4165 13.768C45.0538 14.4933 44.8725 15.3253 44.8725 16.264C44.8725 17.2027 45.0538 18.0347 45.4165 18.76C45.8005 19.4853 46.3232 20.0507 46.9845 20.456C47.6672 20.8613 48.4352 21.064 49.2885 21.064ZM68.4518 25.384C66.5318 25.384 64.8571 24.936 63.4278 24.04C62.0198 23.1227 61.0598 21.896 60.5478 20.36L64.0677 18.696C64.5158 19.6347 65.1238 20.3707 65.8918 20.904C66.6598 21.4373 67.5131 21.704 68.4518 21.704C69.1344 21.704 69.6571 21.5653 70.0198 21.288C70.3824 21.0107 70.5638 20.6267 70.5638 20.136C70.5638 19.88 70.4998 19.6667 70.3718 19.496C70.2438 19.304 70.0518 19.1333 69.7958 18.984C69.5398 18.8347 69.2198 18.7067 68.8358 18.6L65.8598 17.768C64.4304 17.3627 63.3318 16.712 62.5638 15.816C61.7958 14.8987 61.4118 13.8213 61.4118 12.584C61.4118 11.496 61.6891 10.5467 62.2438 9.736C62.7984 8.92533 63.5771 8.296 64.5798 7.848C65.5824 7.37867 66.7344 7.144 68.0358 7.144C69.7424 7.144 71.2358 7.54933 72.5158 8.36C73.8171 9.14933 74.7344 10.2693 75.2678 11.72L71.7158 13.384C71.4598 12.6587 70.9904 12.0827 70.3078 11.656C69.6464 11.208 68.8891 10.984 68.0358 10.984C67.4171 10.984 66.9264 11.112 66.5638 11.368C66.2224 11.624 66.0518 11.976 66.0518 12.424C66.0518 12.6587 66.1158 12.872 66.2438 13.064C66.3718 13.256 66.5744 13.4267 66.8518 13.576C67.1504 13.7253 67.5131 13.864 67.9398 13.992L70.7238 14.824C72.1744 15.2507 73.2838 15.9013 74.0518 16.776C74.8198 17.6293 75.2038 18.6853 75.2038 19.944C75.2038 21.032 74.9158 21.9813 74.3398 22.792C73.7851 23.6027 73.0064 24.2427 72.0038 24.712C71.0011 25.16 69.8171 25.384 68.4518 25.384ZM86.4885 25.192C84.3765 25.192 82.7338 24.6267 81.5605 23.496C80.4085 22.344 79.8325 20.744 79.8325 18.696V11.688H76.8885V7.528H77.0485C77.9445 7.528 78.6272 7.304 79.0965 6.856C79.5872 6.408 79.8325 5.736 79.8325 4.84V3.56H84.6325V7.528H88.7285V11.688H84.6325V18.376C84.6325 18.9733 84.7392 19.4747 84.9525 19.88C85.1658 20.264 85.4965 20.552 85.9445 20.744C86.3925 20.936 86.9472 21.032 87.6085 21.032C87.7578 21.032 87.9285 21.0213 88.1205 21C88.3125 20.9787 88.5152 20.9573 88.7285 20.936V25C88.4085 25.0427 88.0458 25.0853 87.6405 25.128C87.2352 25.1707 86.8512 25.192 86.4885 25.192ZM97.8133 25.384C96.4053 25.384 95.1999 25.0853 94.1973 24.488C93.2159 23.8693 92.4693 23.016 91.9573 21.928C91.4453 20.84 91.1893 19.5707 91.1893 18.12V7.528H95.9893V17.736C95.9893 18.3973 96.1173 18.984 96.3733 19.496C96.6506 19.9867 97.0346 20.3707 97.5253 20.648C98.0159 20.9253 98.5706 21.064 99.1892 21.064C99.8293 21.064 100.384 20.9253 100.853 20.648C101.344 20.3707 101.717 19.9867 101.973 19.496C102.251 18.984 102.389 18.3973 102.389 17.736V7.528H107.189V25H102.709V21.544L102.965 22.312C102.56 23.3573 101.899 24.136 100.981 24.648C100.085 25.1387 99.0293 25.384 97.8133 25.384ZM118.922 25.384C117.215 25.384 115.69 24.9787 114.346 24.168C113.002 23.3573 111.935 22.2587 111.146 20.872C110.378 19.4853 109.993 17.9493 109.993 16.264C109.993 14.5573 110.388 13.0213 111.178 11.656C111.967 10.2693 113.034 9.17067 114.378 8.36C115.722 7.54933 117.226 7.144 118.89 7.144C120.17 7.144 121.3 7.38933 122.282 7.88C123.284 8.34933 124.074 9.02133 124.65 9.896L123.914 10.856V0.775999H128.714V25H124.234V21.8L124.682 22.792C124.084 23.6453 123.274 24.296 122.25 24.744C121.226 25.1707 120.116 25.384 118.922 25.384ZM119.498 21.064C120.372 21.064 121.14 20.8613 121.802 20.456C122.463 20.0507 122.975 19.4853 123.338 18.76C123.722 18.0347 123.914 17.2027 123.914 16.264C123.914 15.3253 123.722 14.4933 123.338 13.768C122.975 13.0427 122.463 12.4773 121.802 12.072C121.14 11.6667 120.372 11.464 119.498 11.464C118.623 11.464 117.834 11.6773 117.13 12.104C116.447 12.5093 115.914 13.0747 115.53 13.8C115.146 14.504 114.954 15.3253 114.954 16.264C114.954 17.2027 115.146 18.0347 115.53 18.76C115.914 19.4853 116.447 20.0507 117.13 20.456C117.834 20.8613 118.623 21.064 119.498 21.064ZM132.229 25V7.528H137.029V25H132.229ZM132.229 5.96V1.16H137.029V5.96H132.229Z" fill="white"/>
<path d="M149.213 25.384C147.485 25.384 145.907 24.9893 144.477 24.2C143.069 23.4107 141.939 22.3333 141.085 20.968C140.253 19.5813 139.837 18.0133 139.837 16.264C139.837 14.4933 140.253 12.9253 141.085 11.56C141.939 10.1947 143.069 9.11733 144.477 8.328C145.907 7.53867 147.485 7.144 149.213 7.144C150.941 7.144 152.509 7.53867 153.917 8.328C155.325 9.11733 156.445 10.1947 157.277 11.56C158.131 12.9253 158.557 14.4933 158.557 16.264C158.557 18.0133 158.131 19.5813 157.277 20.968C156.445 22.3333 155.325 23.4107 153.917 24.2C152.509 24.9893 150.941 25.384 149.213 25.384ZM149.213 21.064C150.088 21.064 150.845 20.8613 151.485 20.456C152.147 20.0507 152.659 19.4853 153.021 18.76C153.405 18.0347 153.597 17.2027 153.597 16.264C153.597 15.3253 153.405 14.504 153.021 13.8C152.659 13.0747 152.147 12.5093 151.485 12.104C150.845 11.6773 150.088 11.464 149.213 11.464C148.339 11.464 147.571 11.6773 146.909 12.104C146.248 12.5093 145.725 13.0747 145.341 13.8C144.979 14.504 144.797 15.3253 144.797 16.264C144.797 17.2027 144.979 18.0347 145.341 18.76C145.725 19.4853 146.248 20.0507 146.909 20.456C147.571 20.8613 148.339 21.064 149.213 21.064Z" fill="#ABFF00"/>
</svg>
